<svg width="1848" height="590" viewBox="0 0 1848 590" fill="none" xmlns="http://www.w3.org/2000/svg">
<path opacity="0.5" fill-rule="evenodd" clip-rule="evenodd" d="M339.123 37.481V2.001V37.481ZM339.123 2V37.48L369.863 55.22L400.6 37.48V2H339.123ZM400.6 2V37.48L431.34 55.22L462.077 37.48V2H400.6ZM462.077 2V37.48V2ZM339.123 144.173V108.693V144.173ZM339.123 108.69L369.863 90.95V55.47L339.123 37.728V108.69ZM400.6 144.173V108.693L369.863 90.953L339.124 108.693V144.173L369.864 161.913L400.6 144.173Z" stroke="#C5C9E0"/>
<path opacity="0.5" fill-rule="evenodd" clip-rule="evenodd" d="M431.339 90.9505V55.4705L400.599 37.7305L369.862 55.4705V90.9505L400.599 108.69L431.339 90.9505ZM462.077 144.173V108.693L431.337 90.9535L400.6 108.693V144.173L431.338 161.913L462.077 144.173Z" stroke="#C5C9E0"/>
<path opacity="0.5" d="M554.293 90.9495L585.032 108.69L615.77 90.9495V55.4695M462.077 37.7285L431.337 55.4685V90.9485L462.077 108.69L492.815 90.9485L462.077 37.7285ZM523.554 144.173V108.693L492.814 90.9525L462.077 108.693V144.173L492.815 161.913L523.554 144.173ZM492.816 90.9495L523.555 108.69L554.293 90.9495H492.816ZM585.031 144.173V108.693L554.291 90.9525L523.554 108.693V144.173L554.292 161.913L585.031 144.173Z" stroke="#C5C9E0"/>
<path opacity="0.5" fill-rule="evenodd" clip-rule="evenodd" d="M646.508 144.173V108.693L615.77 90.9535L585.03 108.693V144.173L615.77 161.913L646.508 144.173ZM677.247 90.9505V55.4705L646.507 37.7305L615.769 55.4705V90.9505L646.507 108.69L677.247 90.9505Z" stroke="#C5C9E0"/>
<path opacity="0.5" fill-rule="evenodd" clip-rule="evenodd" d="M707.985 144.173V108.693L677.247 90.9535L646.507 108.693V144.173L677.247 161.913L707.985 144.173ZM738.723 90.9505V55.4705L707.984 37.7305L677.246 55.4705V90.9505L707.984 108.69L738.723 90.9505Z" stroke="#C5C9E0"/>
<path opacity="0.5" d="M431.339 162.161L400.599 144.421L369.862 162.161M738.723 90.9528L707.984 108.693V144.173L738.724 161.914L738.723 90.9528ZM738.723 55.4688V90.9488V55.4688ZM154.693 215.385V250.865L185.43 268.605L216.17 250.865L154.693 215.385ZM216.17 250.866L246.907 268.606L277.647 250.866H216.17ZM369.862 162.161L339.122 144.421L369.862 162.161Z" stroke="#C5C9E0"/>
<path opacity="0.5" d="M492.816 162.161L462.078 144.421L431.338 162.161" stroke="#C5C9E0"/>
<path opacity="0.5" d="M615.77 268.606L646.507 250.866V215.386L615.77 197.644M554.293 162.161L523.555 144.421L492.815 162.161H554.293ZM615.77 197.643V162.163L585.03 144.42L554.293 162.162L615.77 197.643Z" stroke="#C5C9E0"/>
<path opacity="0.5" fill-rule="evenodd" clip-rule="evenodd" d="M677.248 197.643V162.163L646.508 144.42L615.77 162.162V197.642L646.508 215.382L677.248 197.642V197.643Z" stroke="#C5C9E0" stroke-dasharray="10 10"/>
<path opacity="0.5" fill-rule="evenodd" clip-rule="evenodd" d="M707.985 250.866V215.386L677.247 197.644L646.507 215.386V250.866L677.247 268.606L707.985 250.866ZM738.723 197.643V162.163L707.984 144.42L677.246 162.162V197.642L707.984 215.382L738.723 197.643ZM769.462 250.866V215.386L738.722 197.644L707.985 215.386V250.866L738.723 268.606L769.462 250.866Z" stroke="#C5C9E0"/>
<path opacity="0.5" d="M800.2 197.643L830.94 215.383L861.677 197.643M738.723 162.161V197.641L769.463 215.381L800.2 197.641L738.723 162.161ZM830.939 250.866V215.386L800.199 197.644L769.462 215.386V250.866L800.2 268.606L830.939 250.866Z" stroke="#C5C9E0"/>
<path opacity="0.5" fill-rule="evenodd" clip-rule="evenodd" d="M861.677 197.645L830.939 215.385V250.867L861.677 197.645ZM185.431 304.335V268.855L154.693 251.115L123.953 268.855V304.335L154.693 322.075L185.431 304.335ZM216.17 357.559V322.079L185.43 304.339L154.692 322.079V357.559L185.43 375.299L216.17 357.559Z" stroke="#C5C9E0"/>
<path opacity="0.5" fill-rule="evenodd" clip-rule="evenodd" d="M246.908 304.335V268.855L216.17 251.115L185.43 268.855V304.335L216.17 322.075L246.908 304.335Z" stroke="#C5C9E0"/>
<path opacity="0.5" fill-rule="evenodd" clip-rule="evenodd" d="M277.647 357.559V322.079L246.907 304.339L216.169 322.079V357.559L246.907 375.299L277.647 357.559Z" stroke="#C5C9E0" stroke-dasharray="10 10"/>
<path opacity="0.5" fill-rule="evenodd" clip-rule="evenodd" d="M277.647 251.113L246.907 268.853V304.333L277.647 322.076V251.113ZM277.647 322.078V357.558V322.078ZM738.723 304.335V268.855L707.984 251.115L677.246 268.855V304.335L707.984 322.075L738.723 304.335ZM769.462 357.559V322.079L738.722 304.339L707.985 322.079V357.559L738.723 375.299L769.462 357.559ZM800.2 304.335V268.855L769.462 251.115L738.723 268.855V304.335L769.463 322.075L800.2 304.335Z" stroke="#C5C9E0"/>
<path opacity="0.5" fill-rule="evenodd" clip-rule="evenodd" d="M800.2 304.338L769.462 322.078V357.558L800.2 375.3V304.338ZM830.939 251.113L800.199 268.853V304.333L830.939 251.113ZM185.431 411.027V375.547L154.693 357.807L123.953 375.547V411.027L154.693 428.767L185.431 411.027ZM216.17 464.251V428.771L185.43 411.031L154.692 428.771V464.251L185.43 481.991L216.17 464.251Z" stroke="#C5C9E0"/>
<path opacity="0.5" fill-rule="evenodd" clip-rule="evenodd" d="M246.908 411.027V375.547L216.17 357.807L185.43 375.547V411.027L216.17 428.767L246.908 411.027ZM277.647 464.251V428.771L246.907 411.031L216.169 428.771V464.251L246.907 481.991L277.647 464.251Z" stroke="#C5C9E0"/>
<path opacity="0.5" fill-rule="evenodd" clip-rule="evenodd" d="M277.647 357.806L246.907 375.546V411.026L277.647 428.768L308.386 411.027L277.647 357.806ZM339.123 464.251V428.771L308.386 411.031L277.646 428.771V464.251L308.386 481.991L339.123 464.251Z" stroke="#C5C9E0"/>
<path opacity="0.5" fill-rule="evenodd" clip-rule="evenodd" d="M308.385 411.027L339.123 428.767L369.863 411.027H308.385ZM400.6 464.251V428.771L369.862 411.031L339.123 428.771V464.251L369.863 481.991L400.6 464.251Z" stroke="#C5C9E0"/>
<path opacity="0.5" fill-rule="evenodd" clip-rule="evenodd" d="M369.862 411.027L400.6 428.767L431.34 411.027H369.862ZM462.077 464.251V428.771L431.337 411.031L400.6 428.771V464.251L431.338 481.991L462.077 464.251Z" stroke="#C5C9E0"/>
<path opacity="0.5" d="M492.816 411.027L523.555 428.767L554.293 411.027M431.339 411.027L462.079 428.767L492.816 411.027H431.339ZM523.554 464.251V428.771L492.814 411.031L462.077 428.771V464.251L492.815 481.991L523.554 464.251Z" stroke="#C5C9E0"/>
<path opacity="0.5" d="M554.293 411.027L585.032 428.767L615.77 411.027V375.547M585.031 464.251V428.771L554.291 411.031L523.554 428.771V464.251L554.292 481.991L585.031 464.251Z" stroke="#C5C9E0"/>
<path opacity="0.5" fill-rule="evenodd" clip-rule="evenodd" d="M646.508 464.251V428.771L615.77 411.031L585.03 428.771V464.251L615.77 481.991L646.508 464.251ZM677.247 411.027V375.547L646.507 357.807L615.769 375.547V411.027L646.507 428.767L677.247 411.027Z" stroke="#C5C9E0"/>
<path opacity="0.5" fill-rule="evenodd" clip-rule="evenodd" d="M707.985 464.251V428.771L677.247 411.031L646.507 428.771V464.251L677.247 481.991L707.985 464.251ZM738.723 411.027V375.547L707.984 357.807L677.246 375.547V411.027L707.984 428.767L738.723 411.027ZM769.462 464.251V428.771L738.722 411.031L707.985 428.771V464.251L738.723 481.991L769.462 464.251ZM800.2 411.027V375.547L769.462 357.807L738.723 375.547V411.027L769.463 428.767L800.2 411.027ZM830.939 464.251V428.771L800.199 411.031L769.462 428.771V464.251L800.2 481.991L830.939 464.251ZM800.2 375.547V411.027L830.94 428.767L861.677 411.027L800.2 375.547ZM892.416 464.251V428.771L861.676 411.031L830.939 428.771V464.251L861.676 481.991L892.416 464.251ZM861.677 411.027L892.417 428.767L923.154 411.027H861.677ZM185.431 517.72V482.24L154.693 464.5L123.953 482.24V517.72L154.693 535.46L185.431 517.72ZM216.17 570.944V535.464L185.43 517.723L154.692 535.463V570.943L185.43 588.683L216.17 570.944Z" stroke="#C5C9E0"/>
<path opacity="0.5" fill-rule="evenodd" clip-rule="evenodd" d="M246.908 517.72V482.24L216.17 464.5L185.43 482.24V517.72L216.17 535.46L246.908 517.72ZM277.647 535.463L246.907 517.723L216.169 535.463V570.943L277.647 535.463ZM308.385 517.72V482.24L277.645 464.5L246.908 482.24V517.72L277.646 535.46L308.385 517.72Z" stroke="#C5C9E0"/>
<path opacity="0.5" d="M431.339 482.239L400.599 464.499L369.862 482.239V517.719M339.123 535.463L308.386 517.723L277.646 535.463H339.123ZM369.862 517.72V482.24L339.122 464.5L308.385 482.24V517.72L339.123 535.46L369.862 517.72ZM369.862 517.723L339.122 535.463L369.862 517.723Z" stroke="#C5C9E0"/>
<path opacity="0.5" d="M585.031 570.944V535.464L554.291 517.724M492.816 482.239L462.078 464.499L431.338 482.239H492.816ZM554.293 517.72V482.24L523.555 464.5L492.815 482.24L554.293 517.72Z" stroke="#C5C9E0"/>
<path opacity="0.5" fill-rule="evenodd" clip-rule="evenodd" d="M615.77 517.72V482.24L585.03 464.5L554.293 482.24V517.72L585.03 535.46L615.77 517.72Z" stroke="#C5C9E0"/>
<path opacity="0.5" d="M677.248 517.723L646.508 535.463M677.248 517.72V482.24L646.508 464.5L615.77 482.24V517.72L646.508 535.46L677.248 517.72Z" stroke="#C5C9E0"/>
<path opacity="0.5" d="M800.2 482.239L769.462 464.499L738.723 482.239M738.723 482.239L707.984 464.499L677.246 482.239V517.719L738.723 482.239Z" stroke="#C5C9E0"/>
<path opacity="0.5" fill-rule="evenodd" clip-rule="evenodd" d="M861.677 482.239L830.939 464.499L800.199 482.239H861.677ZM923.154 482.239L892.414 464.499L861.677 482.239H923.154ZM339.123 2L369.863 19.74L400.6 2H339.123ZM400.6 2L431.34 19.74L462.077 2H400.6ZM431.339 55.469V19.989L400.599 2.249L369.862 19.989V55.469L400.599 73.209L431.339 55.469ZM462.077 108.693V73.213L431.337 55.473L400.6 73.213V108.693L431.338 126.433L462.077 108.693Z" stroke="#C5C9E0"/>
<path opacity="0.5" d="M523.554 108.693L554.292 126.433L585.032 108.693M462.077 2.24805L431.337 19.988V55.468L462.077 73.2101V2.24805ZM462.077 73.2121V108.692L492.815 126.432L523.555 108.692L462.077 73.2121Z" stroke="#C5C9E0"/>
<path opacity="0.5" d="M585.031 108.693L615.771 126.433L646.508 108.693V73.2127L615.77 55.4727" stroke="#C5C9E0"/>
<path opacity="0.5" fill-rule="evenodd" clip-rule="evenodd" d="M707.985 108.693V73.2127L677.247 55.4727L646.507 73.2127V108.693L677.247 126.433L707.985 108.693Z" stroke="#C5C9E0"/>
<path opacity="0.5" d="M400.6 179.905L369.862 162.165L339.123 179.905M738.723 55.4717L707.984 73.2117V108.692L738.724 126.434L738.723 55.4717ZM154.693 179.905V215.385L185.43 233.125L154.693 179.905ZM339.123 179.902L369.863 162.162V126.682L339.123 108.94V179.902Z" stroke="#C5C9E0"/>
<path opacity="0.5" d="M462.077 179.905L431.337 162.165L400.6 179.905M431.339 162.161V126.681L400.599 108.941L369.862 126.681V162.161L400.599 179.901L431.339 162.161Z" stroke="#C5C9E0"/>
<path opacity="0.5" d="M523.554 179.905L492.814 162.165L462.077 179.905M492.816 162.161V126.681L462.078 108.941L431.338 126.681V162.161L462.078 179.901L492.816 162.161Z" stroke="#C5C9E0"/>
<path opacity="0.5" d="M585.031 179.905L554.291 162.165L523.554 179.905M554.293 162.161V126.681L523.555 108.941L492.815 126.681V162.161L523.555 179.901L554.293 162.161Z" stroke="#C5C9E0"/>
<path opacity="0.5" d="M615.77 233.126L646.507 215.386V179.906L615.77 162.164L585.03 179.906M615.77 162.161V126.681L585.03 108.941L554.293 126.681V162.161L585.03 179.901L615.77 162.161Z" stroke="#C5C9E0"/>
<path opacity="0.5" fill-rule="evenodd" clip-rule="evenodd" d="M677.248 162.161V126.681L646.508 108.941L615.77 126.681V162.161L646.508 179.901L677.248 162.161ZM707.986 215.385V179.905L677.248 162.165L646.508 179.905V215.385L677.248 233.125L707.986 215.385Z" stroke="#C5C9E0"/>
<path opacity="0.5" fill-rule="evenodd" clip-rule="evenodd" d="M738.723 162.161V126.681L707.984 108.941L677.246 126.681V162.161L707.984 179.901L738.723 162.161ZM769.462 215.385V179.905L738.722 162.165L707.985 179.905V215.385L738.723 233.125L769.462 215.385ZM738.723 126.681V162.161L769.463 179.901L738.723 126.681ZM769.462 179.905V215.385L800.2 233.125L830.94 215.385L769.462 179.905ZM830.939 215.385L861.677 233.125L830.939 215.385ZM185.431 268.854V233.374L154.693 215.632L123.953 233.374V268.854L154.693 286.594L185.431 268.854ZM216.17 322.078V286.598L185.43 268.858L154.692 286.598V322.078L185.43 339.818L216.17 322.078Z" stroke="#C5C9E0"/>
<path opacity="0.5" fill-rule="evenodd" clip-rule="evenodd" d="M185.431 233.373V268.853L216.171 286.593L246.908 268.853V233.373H185.431ZM615.77 268.854V233.374V268.854ZM677.247 268.854V233.374L646.507 215.632L615.769 233.374V268.854L646.507 286.594L677.247 268.854Z" stroke="#C5C9E0"/>
<path opacity="0.5" fill-rule="evenodd" clip-rule="evenodd" d="M738.723 268.854V233.374L707.984 215.632L677.246 233.374V268.854L707.984 286.594L738.723 268.854ZM769.462 322.078V286.598L738.722 268.858L707.985 286.598V322.078L738.723 339.818L769.462 322.078ZM800.2 268.854V233.374L769.462 215.632L738.723 233.374V268.854L769.463 286.594L800.2 268.854Z" stroke="#C5C9E0"/>
<path opacity="0.5" fill-rule="evenodd" clip-rule="evenodd" d="M800.2 268.857L769.462 286.597V322.077L800.2 339.819V268.857ZM861.677 233.373L830.939 215.633L800.199 233.373V268.853L861.677 233.373ZM185.431 375.547V340.067L154.693 322.327L123.953 340.067V375.547L154.693 393.287L185.431 375.547ZM216.17 428.771V393.291L185.43 375.551L154.692 393.291V428.771L185.43 446.511L216.17 428.771Z" stroke="#C5C9E0"/>
<path opacity="0.5" fill-rule="evenodd" clip-rule="evenodd" d="M246.908 375.547V340.067L216.17 322.327L185.43 340.067V375.547L216.17 393.287L246.908 375.547ZM277.647 428.771V393.291L246.907 375.551L216.169 393.291V428.771L246.907 446.511L277.647 428.771Z" stroke="#C5C9E0"/>
<path opacity="0.5" d="M277.647 393.29V428.77L308.386 446.512L339.124 428.77V393.29M277.647 322.326L246.907 340.066V375.546L277.647 393.288V322.326Z" stroke="#C5C9E0"/>
<path opacity="0.5" fill-rule="evenodd" clip-rule="evenodd" d="M339.123 393.29V428.77L369.863 446.512L400.6 428.77V393.29H339.123ZM462.077 393.29V428.77L492.815 446.512L523.555 428.77V393.29H462.077ZM585.031 393.287L615.771 375.547V340.067L585.031 393.287ZM646.508 428.771V393.291L615.77 375.551L585.03 393.291V428.771L615.77 446.511L646.508 428.771Z" stroke="#C5C9E0"/>
<path opacity="0.5" fill-rule="evenodd" clip-rule="evenodd" d="M707.985 428.771V393.291L677.247 375.551L646.507 393.291V428.771L677.247 446.511L707.985 428.771ZM738.723 375.547V340.067L707.984 322.327L677.246 340.067V375.547L707.984 393.287L738.723 375.547ZM769.462 428.771V393.291L738.722 375.551L707.985 393.291V428.771L738.723 446.511L769.462 428.771ZM800.2 375.547V340.067L769.462 322.327L738.723 340.067V375.547L769.463 393.287L800.2 375.547Z" stroke="#C5C9E0"/>
<path opacity="0.5" fill-rule="evenodd" clip-rule="evenodd" d="M800.2 375.55L769.462 393.29V428.77L800.2 446.512L830.94 428.77L800.2 375.55ZM800.2 340.066V375.546V340.066ZM830.939 428.771L861.677 446.511L892.416 428.771H830.939ZM185.431 482.239V446.759L154.693 429.019L123.953 446.759V482.239L154.693 499.979L185.431 482.239ZM216.17 535.463V499.983L185.43 482.243L154.692 499.983V535.463L185.43 553.203L216.17 535.463Z" stroke="#C5C9E0"/>
<path opacity="0.5" fill-rule="evenodd" clip-rule="evenodd" d="M246.908 482.239V446.759L216.17 429.019L185.43 446.759V482.239L216.17 499.979L246.908 482.239ZM277.647 535.463V499.983L246.907 482.243L216.169 499.983V535.463H277.647ZM308.385 482.239V446.759L277.645 429.019L246.908 446.759V482.239L277.646 499.979L308.385 482.239Z" stroke="#C5C9E0"/>
<path opacity="0.5" d="M462.077 499.983L431.337 482.243L400.6 499.983M339.123 535.463V499.983L308.386 482.243L277.646 499.983V535.463L308.386 553.203L339.123 535.463ZM369.862 482.239V446.759L339.122 429.019L308.385 446.759V482.239L339.123 499.979L369.862 482.239ZM400.6 499.983L369.862 482.243L339.123 499.983V535.463L369.863 553.203L400.6 499.983ZM431.339 482.239V446.759L400.599 429.019L369.862 446.759V482.239L400.599 499.979L431.339 482.239Z" stroke="#C5C9E0"/>
<path opacity="0.5" d="M523.554 499.983L492.814 482.243L462.077 499.983M492.816 482.239V446.759L462.078 429.019L431.338 446.759V482.239L462.078 499.979L492.816 482.239Z" stroke="#C5C9E0"/>
<path opacity="0.5" fill-rule="evenodd" clip-rule="evenodd" d="M554.293 482.239V446.759L523.555 429.019L492.815 446.759V482.239L523.555 499.979L554.293 482.239Z" stroke="#C5C9E0"/>
<path opacity="0.5" fill-rule="evenodd" clip-rule="evenodd" d="M615.77 482.239V446.759L585.03 429.019L554.293 446.759V482.239L585.03 499.979L615.77 482.239ZM646.508 535.463V499.983L615.77 482.243L585.03 499.983V535.463L615.77 553.203L646.508 535.463Z" stroke="#C5C9E0"/>
<path opacity="0.5" d="M677.248 482.243L646.508 499.983V535.463L677.248 553.204M677.248 482.239V446.759L646.508 429.019L615.77 446.759V482.239L646.508 499.979L677.248 482.239Z" stroke="#C5C9E0"/>
<path opacity="0.5" d="M800.2 482.239V446.759L769.462 429.019L738.723 446.759V482.239M738.723 482.239V446.759L707.984 429.019L677.246 446.759V482.239H738.723Z" stroke="#C5C9E0"/>
<path opacity="0.5" d="M1476.45 90.95L1507.19 108.69L1537.92 90.95M861.677 482.239V446.759L830.939 429.019L800.199 446.759V482.239H861.677ZM923.154 482.239V446.759L892.414 429.019L861.677 446.759V482.239H923.154ZM1599.4 55.221L1630.14 37.481V2.001L1599.4 55.221ZM1630.14 2V37.48L1660.88 55.22L1691.62 37.48V2H1630.14ZM1691.62 2V37.48L1722.35 55.22L1691.62 2ZM1138.32 108.693V144.173V108.693ZM1445.71 144.173V108.693L1414.97 90.953L1384.23 108.693V144.173L1414.97 161.913L1445.71 144.173ZM1507.19 144.173V108.693L1476.45 90.953L1445.71 108.693V144.173L1476.45 161.913L1507.19 144.173Z" stroke="#C5C9E0"/>
<path opacity="0.5" d="M1537.92 90.9497L1568.66 108.69L1599.4 90.9497V55.4697M1568.66 144.173V108.693L1537.92 90.9527L1507.18 108.693V144.173L1537.92 161.913L1568.66 144.173Z" stroke="#C5C9E0"/>
<path opacity="0.5" fill-rule="evenodd" clip-rule="evenodd" d="M1630.14 144.173V108.693L1599.4 90.9535L1568.66 108.693V144.173L1599.4 161.913L1630.14 144.173ZM1660.88 90.9505V55.4705L1630.14 37.7305L1599.4 55.4705V90.9505L1630.14 108.69L1660.88 90.9505ZM1691.62 144.173V108.693L1660.88 90.9535L1630.14 108.693V144.173L1660.88 161.913L1691.62 144.173Z" stroke="#C5C9E0"/>
<path opacity="0.5" fill-rule="evenodd" clip-rule="evenodd" d="M1722.35 90.9505V55.4705L1691.62 37.7305L1660.88 55.4705V90.9505L1691.62 108.69L1722.35 90.9505ZM1722.35 90.9535L1691.62 108.693V144.173L1722.35 161.914V90.9535ZM1722.35 55.4695V90.9495V55.4695ZM1076.85 250.866V215.386L1046.11 197.644L1015.37 215.386V250.866L1046.11 268.606L1076.85 250.866ZM1107.59 197.643V162.163L1076.85 144.42L1046.11 162.162V197.642L1076.85 215.382L1107.59 197.643Z" stroke="#C5C9E0"/>
<path opacity="0.5" d="M1599.4 268.606L1630.14 250.866V215.386L1599.4 197.644M1138.32 250.866V215.386L1107.58 197.644L1076.85 215.386V250.866L1107.58 268.606L1138.32 250.866ZM1138.32 144.421L1107.58 162.161V197.643L1138.32 215.383L1138.32 144.421ZM1138.32 215.385V250.865L1169.06 268.605L1199.8 250.865L1138.32 215.385ZM1199.8 250.866L1230.54 268.606L1261.28 250.866H1199.8ZM1476.45 162.161L1445.71 144.421L1414.97 162.161H1476.45ZM1537.92 162.161L1507.18 144.421L1476.45 162.161H1537.92ZM1599.4 197.643V162.163L1568.66 144.42L1537.92 162.162L1599.4 197.643Z" stroke="#C5C9E0"/>
<path opacity="0.5" fill-rule="evenodd" clip-rule="evenodd" d="M1660.88 197.643V162.163L1630.14 144.42L1599.4 162.162V197.642L1630.14 215.382L1660.88 197.643Z" stroke="#C5C9E0"/>
<path opacity="0.5" fill-rule="evenodd" clip-rule="evenodd" d="M1691.62 250.866V215.386L1660.88 197.644L1630.14 215.386V250.866L1660.88 268.606L1691.62 250.866Z" stroke="#C5C9E0" stroke-dasharray="10 10"/>
<path opacity="0.5" fill-rule="evenodd" clip-rule="evenodd" d="M1722.35 197.643V162.163L1691.62 144.42L1660.88 162.162V197.642L1691.62 215.382L1722.35 197.643ZM1753.09 250.866V215.386L1722.35 197.644L1691.61 215.386V250.866L1722.35 268.606L1753.09 250.866Z" stroke="#C5C9E0"/>
<path opacity="0.5" fill-rule="evenodd" clip-rule="evenodd" d="M1722.35 162.161V197.641L1753.09 215.381L1783.83 197.641L1722.35 162.161ZM1814.57 250.866V215.386L1783.83 197.644L1753.09 215.386V250.866L1783.83 268.606L1814.57 250.866ZM1783.83 197.643L1814.57 215.383L1845.31 197.643H1783.83ZM1015.37 357.559V322.079V357.559ZM1076.85 357.559V322.079L1046.11 304.339L1015.37 322.079V357.559L1046.11 375.299L1076.85 357.559ZM1107.59 304.335V268.855L1076.85 251.115L1046.11 268.855V304.335L1076.85 322.075L1107.59 304.335Z" stroke="#C5C9E0"/>
<path opacity="0.5" fill-rule="evenodd" clip-rule="evenodd" d="M1138.32 357.559V322.079L1107.58 304.339L1076.85 322.079V357.559L1107.58 375.299L1138.32 357.559ZM1169.06 304.335V268.855L1138.32 251.115L1107.58 268.855V304.335L1138.32 322.075L1169.06 304.335Z" stroke="#C5C9E0"/>
<path opacity="0.5" fill-rule="evenodd" clip-rule="evenodd" d="M1199.8 357.559V322.079L1169.06 304.339L1138.32 322.079V357.559L1169.06 375.299L1199.8 357.559ZM1230.54 304.335V268.855L1199.8 251.115L1169.06 268.855V304.335L1199.8 322.075L1230.54 304.335Z" stroke="#C5C9E0"/>
<path opacity="0.5" fill-rule="evenodd" clip-rule="evenodd" d="M1261.28 357.559V322.079L1230.54 304.339L1199.8 322.079V357.559L1230.54 375.299L1261.28 357.559Z" stroke="#C5C9E0" stroke-dasharray="10 10"/>
<path opacity="0.5" fill-rule="evenodd" clip-rule="evenodd" d="M1261.28 251.113L1230.54 268.853V304.333L1261.28 322.076V251.113ZM1261.28 322.078V357.558V322.078ZM1722.35 304.335V268.855L1691.62 251.115L1660.88 268.855V304.335L1691.62 322.075L1722.35 304.335ZM1753.09 357.559V322.079L1722.35 304.339L1691.61 322.079V357.559L1722.35 375.299L1753.09 357.559Z" stroke="#C5C9E0"/>
<path opacity="0.5" d="M1783.83 304.338L1753.09 322.078V357.558L1783.83 375.3M1783.83 304.335V268.855L1753.09 251.115L1722.35 268.855V304.335L1753.09 322.075L1783.83 304.335Z" stroke="#C5C9E0"/>
<path opacity="0.5" d="M953.893 428.771L923.155 411.031L892.415 428.771M1814.57 251.113L1783.83 268.853V304.333L1814.57 251.113ZM892.416 428.768L923.156 411.028V375.548L892.416 428.768Z" stroke="#C5C9E0"/>
<path opacity="0.5" d="M1015.37 428.771L984.632 411.031L953.892 428.771M923.154 375.547V411.027L953.892 428.767L984.632 411.027V375.547H923.154Z" stroke="#C5C9E0"/>
<path opacity="0.5" d="M984.631 375.547V411.027L1015.37 428.767L1046.11 411.027V375.547L1015.37 357.807" stroke="#C5C9E0" stroke-dasharray="10 10"/>
<path opacity="0.5" fill-rule="evenodd" clip-rule="evenodd" d="M1076.85 464.251V428.771L1046.11 411.031L1015.37 428.771L1076.85 464.251ZM1107.59 411.027V375.547L1076.85 357.807L1046.11 375.547V411.027L1076.85 428.767L1107.59 411.027Z" stroke="#C5C9E0"/>
<path opacity="0.5" fill-rule="evenodd" clip-rule="evenodd" d="M1138.32 464.251V428.771L1107.58 411.031L1076.85 428.771V464.251L1107.58 481.991L1138.32 464.251ZM1169.06 411.027V375.547L1138.32 357.807L1107.58 375.547V411.027L1138.32 428.767L1169.06 411.027Z" stroke="#C5C9E0"/>
<path opacity="0.5" fill-rule="evenodd" clip-rule="evenodd" d="M1199.8 464.251V428.771L1169.06 411.031L1138.32 428.771V464.251L1169.06 481.991L1199.8 464.251ZM1230.54 411.027V375.547L1199.8 357.807L1169.06 375.547V411.027L1199.8 428.767L1230.54 411.027ZM1261.28 464.251V428.771L1230.54 411.031L1199.8 428.771V464.251L1230.54 481.991L1261.28 464.251Z" stroke="#C5C9E0"/>
<path opacity="0.5" fill-rule="evenodd" clip-rule="evenodd" d="M1261.28 357.806L1230.54 375.546V411.026L1261.28 428.768L1292.02 411.027L1261.28 357.806ZM1322.75 464.251V428.771L1292.02 411.031L1261.28 428.771V464.251L1292.02 481.991L1322.75 464.251Z" stroke="#C5C9E0"/>
<path opacity="0.5" d="M1353.49 411.027L1384.23 428.767L1414.97 411.027M1292.02 411.027L1322.75 428.767L1353.49 411.027H1292.02ZM1384.23 464.251V428.771L1353.49 411.031L1322.75 428.771V464.251L1353.49 481.991L1384.23 464.251Z" stroke="#C5C9E0"/>
<path opacity="0.5" fill-rule="evenodd" clip-rule="evenodd" d="M1445.71 464.251V428.771L1414.97 411.031L1384.23 428.771V464.251L1414.97 481.991L1445.71 464.251ZM1414.97 411.027L1445.71 428.767L1476.45 411.027H1414.97ZM1507.19 464.251V428.771L1476.45 411.031L1445.71 428.771V464.251L1476.45 481.991L1507.19 464.251Z" stroke="#C5C9E0"/>
<path opacity="0.5" d="M1537.92 411.027L1568.66 428.767L1599.4 411.027V375.547M1476.45 411.027L1507.19 428.767L1537.92 411.027H1476.45ZM1568.66 464.251V428.771L1537.92 411.031L1507.18 428.771V464.251L1537.92 481.991L1568.66 464.251Z" stroke="#C5C9E0"/>
<path opacity="0.5" fill-rule="evenodd" clip-rule="evenodd" d="M1630.14 464.251V428.771L1599.4 411.031L1568.66 428.771V464.251L1599.4 481.991L1630.14 464.251ZM1660.88 411.027V375.547L1630.14 357.807L1599.4 375.547V411.027L1630.14 428.767L1660.88 411.027ZM1691.62 464.251V428.771L1660.88 411.031L1630.14 428.771V464.251L1660.88 481.991L1691.62 464.251Z" stroke="#C5C9E0"/>
<path opacity="0.5" fill-rule="evenodd" clip-rule="evenodd" d="M1722.35 411.027V375.547L1691.62 357.807L1660.88 375.547V411.027L1691.62 428.767L1722.35 411.027ZM1753.09 464.251V428.771L1722.35 411.031L1691.61 428.771V464.251L1722.35 481.991L1753.09 464.251Z" stroke="#C5C9E0"/>
<path opacity="0.5" d="M1138.32 570.944V535.464L1107.58 517.724M1783.83 411.027V375.547L1753.09 357.807L1722.35 375.547V411.027L1753.09 428.767L1783.83 411.027ZM1814.57 464.251V428.771L1783.83 411.031L1753.09 428.771V464.251L1783.83 481.991L1814.57 464.251ZM1783.83 375.547V411.027L1814.57 428.767L1845.31 411.027L1783.83 375.547ZM1107.58 517.72V482.24L1076.85 464.5L1107.58 517.72Z" stroke="#C5C9E0"/>
<path opacity="0.5" fill-rule="evenodd" clip-rule="evenodd" d="M1169.06 517.72V482.24L1138.32 464.5L1107.58 482.24V517.72L1138.32 535.46L1169.06 517.72ZM1199.8 570.944V535.464L1169.06 517.724L1138.32 535.464V570.944L1169.06 588.684L1199.8 570.944ZM1230.54 517.72V482.24L1199.8 464.5L1169.06 482.24V517.72L1199.8 535.46L1230.54 517.72Z" stroke="#C5C9E0"/>
<path opacity="0.5" fill-rule="evenodd" clip-rule="evenodd" d="M1261.28 535.463L1230.54 517.723L1199.8 535.463V570.943L1261.28 535.463ZM1292.02 517.72V482.24L1261.28 464.5L1230.54 482.24V517.72L1261.28 535.46L1292.02 517.72Z" stroke="#C5C9E0"/>
<path opacity="0.5" d="M1353.49 517.723L1322.75 535.463M1322.75 535.463L1292.02 517.723L1261.28 535.463H1322.75ZM1353.49 517.72V482.24L1322.75 464.5L1292.02 482.24V517.72L1322.75 535.46L1353.49 517.72Z" stroke="#C5C9E0"/>
<path opacity="0.5" d="M1414.97 482.239L1384.23 464.499L1353.49 482.239V517.719" stroke="#C5C9E0"/>
<path opacity="0.5" d="M1660.88 517.723L1630.14 535.463M1476.45 482.239L1445.71 464.499L1414.97 482.239H1476.45ZM1537.92 517.72V482.24L1507.18 464.5L1476.45 482.24L1537.92 517.72ZM1568.66 570.944V535.464L1537.92 517.724L1568.66 570.944ZM1599.4 517.72V482.24L1568.66 464.5L1537.92 482.24V517.72L1568.66 535.46L1599.4 517.72ZM1660.88 517.72V482.24L1630.14 464.5L1599.4 482.24V517.72L1630.14 535.46L1660.88 517.72Z" stroke="#C5C9E0"/>
<path opacity="0.5" d="M1722.35 482.239L1691.62 464.499L1660.88 482.239V517.719" stroke="#C5C9E0"/>
<path opacity="0.5" d="M1783.83 482.239L1753.09 464.499L1722.35 482.239" stroke="#C5C9E0"/>
<path opacity="0.5" fill-rule="evenodd" clip-rule="evenodd" d="M1845.31 482.239L1814.57 464.499L1783.83 482.239H1845.31ZM1599.4 19.741L1630.14 2.001L1599.4 19.741ZM1630.14 2L1660.88 19.74L1691.62 2H1630.14ZM1507.19 108.693L1537.93 126.433L1568.66 108.693H1507.19ZM1599.4 55.469V19.989V55.469ZM1568.66 108.693L1599.4 126.433L1630.14 108.693V73.213L1599.4 55.473L1568.66 108.693ZM1660.88 55.469V19.989L1630.14 2.249L1599.4 19.989V55.469L1630.14 73.209L1660.88 55.469Z" stroke="#C5C9E0"/>
<path opacity="0.5" d="M1691.62 2.24805L1660.88 19.988V55.468L1691.62 73.2101L1722.35 55.468M1691.62 108.693V73.2131L1660.88 55.473L1630.14 73.2131V108.693L1660.88 126.433L1691.62 108.693Z" stroke="#C5C9E0"/>
<path opacity="0.5" fill-rule="evenodd" clip-rule="evenodd" d="M1722.35 55.4717L1691.62 73.2117V108.692L1722.35 126.434V55.4717ZM1076.85 215.385V179.905L1046.11 162.165L1015.37 179.905V215.385L1046.11 233.125L1076.85 215.385ZM1107.59 162.161V126.681L1076.85 108.941L1046.11 126.681V162.161L1076.85 179.901L1107.59 162.161Z" stroke="#C5C9E0"/>
<path opacity="0.5" fill-rule="evenodd" clip-rule="evenodd" d="M1138.32 215.385V179.905L1107.58 162.165L1076.85 179.905V215.385L1107.58 233.125L1138.32 215.385ZM1138.32 108.94L1107.58 126.68V162.16L1138.32 179.902L1138.32 108.94ZM1138.32 179.905V215.385L1169.06 233.125L1138.32 179.905ZM1445.71 179.905L1414.97 162.165L1384.23 179.905H1445.71ZM1476.45 162.161V126.681L1445.71 108.941L1414.97 126.681V162.161L1445.71 179.901L1476.45 162.161Z" stroke="#C5C9E0"/>
<path opacity="0.5" fill-rule="evenodd" clip-rule="evenodd" d="M1507.19 179.905L1476.45 162.165L1445.71 179.905H1507.19ZM1537.92 162.161V126.681L1507.18 108.941L1476.45 126.681V162.161L1507.18 179.901L1537.92 162.161H1537.92Z" stroke="#C5C9E0" stroke-dasharray="10 10"/>
<path opacity="0.5" d="M1568.66 179.905L1537.92 162.165L1507.18 179.905" stroke="#C5C9E0"/>
<path opacity="0.5" fill-rule="evenodd" clip-rule="evenodd" d="M1599.4 162.161V126.681L1568.66 108.941L1537.92 126.681V162.161L1568.66 179.901L1599.4 162.161H1599.4Z" stroke="#C5C9E0" stroke-dasharray="10 10"/>
<path opacity="0.5" d="M1599.4 233.126L1630.14 215.386V179.906L1599.4 162.164L1568.66 179.906" stroke="#C5C9E0"/>
<path opacity="0.5" fill-rule="evenodd" clip-rule="evenodd" d="M1660.88 162.161V126.681L1630.14 108.941L1599.4 126.681V162.161L1630.14 179.901L1660.88 162.161Z" stroke="#C5C9E0" stroke-dasharray="10 10"/>
<path opacity="0.5" fill-rule="evenodd" clip-rule="evenodd" d="M1691.62 215.385V179.905L1660.88 162.165L1630.14 179.905V215.385L1660.88 233.125L1691.62 215.385ZM1722.35 162.161V126.681L1691.62 108.941L1660.88 126.681V162.161L1691.62 179.901L1722.35 162.161Z" stroke="#C5C9E0"/>
<path opacity="0.5" fill-rule="evenodd" clip-rule="evenodd" d="M1753.09 215.385V179.905L1722.35 162.165L1691.62 179.905V215.385L1722.35 233.125L1753.09 215.385ZM1722.35 126.681V162.161L1753.09 179.901L1722.35 126.681ZM1753.09 179.905V215.385L1783.83 233.125L1814.57 215.385L1753.09 179.905ZM1076.85 322.078V286.598L1046.11 268.858L1015.37 286.598V322.078L1046.11 339.818L1076.85 322.078ZM1107.59 268.854V233.374L1076.85 215.632L1046.11 233.374V268.854L1076.85 286.594L1107.59 268.854Z" stroke="#C5C9E0"/>
<path opacity="0.5" fill-rule="evenodd" clip-rule="evenodd" d="M1138.32 322.078V286.598L1107.58 268.858L1076.85 286.598V322.078L1107.58 339.818L1138.32 322.078ZM1169.06 268.854V233.374L1138.32 215.632L1107.58 233.374V268.854L1138.32 286.594L1169.06 268.854Z" stroke="#C5C9E0"/>
<path opacity="0.5" fill-rule="evenodd" clip-rule="evenodd" d="M1199.8 322.078V286.598L1169.06 268.858L1138.32 286.598V322.078L1169.06 339.818L1199.8 322.078H1199.8Z" stroke="#C5C9E0" stroke-dasharray="10 10"/>
<path opacity="0.5" fill-rule="evenodd" clip-rule="evenodd" d="M1169.06 233.373V268.853L1199.8 286.593L1230.54 268.853V233.373H1169.06ZM1599.4 268.854V233.374V268.854ZM1660.88 268.854V233.374L1630.14 215.632L1599.4 233.374V268.854L1630.14 286.594L1660.88 268.854Z" stroke="#C5C9E0"/>
<path opacity="0.5" fill-rule="evenodd" clip-rule="evenodd" d="M1722.35 268.854V233.374L1691.62 215.632L1660.88 233.374V268.854L1691.62 286.594L1722.35 268.854ZM1753.09 322.078V286.598L1722.35 268.858L1691.61 286.598V322.078L1722.35 339.818L1753.09 322.078Z" stroke="#C5C9E0"/>
<path opacity="0.5" d="M923.154 375.547L953.892 393.287L984.632 375.547M1783.83 268.854V233.374L1753.09 215.632L1722.35 233.374V268.854L1753.09 286.594L1783.83 268.854ZM1783.83 268.857L1753.09 286.597V322.077L1783.83 339.819V268.857ZM892.416 428.771L923.156 446.511L953.893 428.771V393.291L923.155 375.551L892.416 428.771Z" stroke="#C5C9E0"/>
<path opacity="0.5" fill-rule="evenodd" clip-rule="evenodd" d="M1015.37 428.771V393.291L984.632 375.551L953.892 393.291V428.771L984.632 446.511L1015.37 428.771ZM984.631 375.547L1015.37 393.287L1046.11 375.547V340.067L1015.37 322.327L984.631 375.547ZM1076.85 428.771V393.291L1046.11 375.551L1015.37 393.291V428.771L1046.11 446.511L1076.85 428.771Z" stroke="#C5C9E0"/>
<path opacity="0.5" fill-rule="evenodd" clip-rule="evenodd" d="M1107.59 375.547V340.067L1076.85 322.327L1046.11 340.067V375.547L1076.85 393.287L1107.59 375.547ZM1138.32 428.771V393.291L1107.58 375.551L1076.85 393.291V428.771L1107.58 446.511L1138.32 428.771Z" stroke="#C5C9E0"/>
<path opacity="0.5" fill-rule="evenodd" clip-rule="evenodd" d="M1169.06 375.547V340.067L1138.32 322.327L1107.58 340.067V375.547L1138.32 393.287L1169.06 375.547ZM1199.8 428.771V393.291L1169.06 375.551L1138.32 393.291V428.771L1169.06 446.511L1199.8 428.771Z" stroke="#C5C9E0"/>
<path opacity="0.5" fill-rule="evenodd" clip-rule="evenodd" d="M1230.54 375.547V340.067L1199.8 322.327L1169.06 340.067V375.547L1199.8 393.287L1230.54 375.547Z" stroke="#C5C9E0" stroke-dasharray="10 10"/>
<path opacity="0.5" d="M1261.28 393.29V428.77L1292.02 446.512L1322.75 428.77V393.29M1261.28 428.771V393.291L1230.54 375.551L1199.8 393.291V428.771L1230.54 446.511L1261.28 428.771ZM1261.28 322.326L1230.54 340.066V375.546L1261.28 393.288V322.326Z" stroke="#C5C9E0"/>
<path opacity="0.5" d="M1384.23 393.29V428.77L1414.97 446.512L1445.71 428.77V393.29M1322.75 393.29V428.77L1353.49 446.512L1384.23 428.77V393.29H1322.75Z" stroke="#C5C9E0"/>
<path opacity="0.5" d="M1445.71 393.29V428.77L1476.45 446.512L1507.19 428.77V393.29" stroke="#C5C9E0"/>
<path opacity="0.5" d="M1568.66 393.287L1599.4 375.547V340.067M1507.19 393.29V428.77L1537.93 446.512L1568.66 428.77V393.29H1507.19Z" stroke="#C5C9E0"/>
<path opacity="0.5" fill-rule="evenodd" clip-rule="evenodd" d="M1630.14 428.771V393.291L1599.4 375.551L1568.66 393.291V428.771L1599.4 446.511L1630.14 428.771ZM1691.62 428.771V393.291L1660.88 375.551L1630.14 393.291V428.771L1660.88 446.511L1691.62 428.771ZM1722.35 375.547V340.067L1691.62 322.327L1660.88 340.067V375.547L1691.62 393.287L1722.35 375.547Z" stroke="#C5C9E0"/>
<path opacity="0.5" fill-rule="evenodd" clip-rule="evenodd" d="M1753.09 428.771V393.291L1722.35 375.551L1691.62 393.291V428.771L1722.35 446.511L1753.09 428.771Z" stroke="#C5C9E0" stroke-dasharray="10 10"/>
<path opacity="0.5" d="M923.154 446.759L953.892 429.019L984.632 446.759M1783.83 375.547V340.067L1753.09 322.327L1722.35 340.067V375.547L1753.09 393.287L1783.83 375.547ZM1783.83 375.55L1753.09 393.29V428.77L1783.83 446.512L1814.57 428.77L1783.83 375.55ZM1783.83 340.066V375.546V340.066ZM892.416 429.018L923.156 446.758L892.416 429.018Z" stroke="#C5C9E0"/>
<path opacity="0.5" d="M1046.11 446.759L1015.37 429.019L984.631 446.759" stroke="#C5C9E0"/>
<path opacity="0.5" d="M1107.59 553.203L1138.33 535.463V499.983L1107.59 482.242M1107.59 482.239V446.759L1076.85 429.019L1046.11 446.759L1107.59 482.239Z" stroke="#C5C9E0"/>
<path opacity="0.5" d="M1261.28 535.463V499.983L1230.54 482.243L1199.8 499.983V535.463M1169.06 482.239V446.759L1138.32 429.019L1107.58 446.759V482.239L1138.32 499.979L1169.06 482.239ZM1199.8 535.463V499.983L1169.06 482.243L1138.32 499.983V535.463L1169.06 553.203L1199.8 535.463ZM1230.54 482.239V446.759L1199.8 429.019L1169.06 446.759V482.239L1199.8 499.979L1230.54 482.239Z" stroke="#C5C9E0"/>
<path opacity="0.5" fill-rule="evenodd" clip-rule="evenodd" d="M1292.02 482.239V446.759L1261.28 429.019L1230.54 446.759V482.239L1261.28 499.979L1292.02 482.239ZM1322.75 535.463V499.983L1292.02 482.243L1261.28 499.983V535.463L1292.02 553.203L1322.75 535.463Z" stroke="#C5C9E0"/>
<path opacity="0.5" d="M1384.23 499.983L1353.49 482.243L1322.75 499.983V535.463L1353.49 553.203M1353.49 482.239V446.759L1322.75 429.019L1292.01 446.759V482.239L1322.75 499.979L1353.49 482.239Z" stroke="#C5C9E0"/>
<path opacity="0.5" d="M1445.71 499.983L1414.97 482.243L1384.23 499.983M1414.97 482.239V446.759L1384.23 429.019L1353.49 446.759V482.239L1384.23 499.979L1414.97 482.239Z" stroke="#C5C9E0"/>
<path opacity="0.5" d="M1507.18 499.983L1537.92 482.243L1568.66 499.983V535.463L1537.92 553.203M1476.45 482.239V446.759L1445.71 429.019L1414.97 446.759V482.239L1445.71 499.979L1476.45 482.239ZM1507.18 499.983L1476.44 482.243L1445.71 499.983H1507.18ZM1537.92 482.239V446.759L1507.18 429.019L1476.45 446.759V482.239L1507.18 499.979L1537.92 482.239Z" stroke="#C5C9E0"/>
<path opacity="0.5" fill-rule="evenodd" clip-rule="evenodd" d="M1599.4 482.239V446.759L1568.66 429.019L1537.92 446.759V482.239L1568.66 499.979L1599.4 482.239ZM1630.14 535.463V499.983L1599.4 482.243L1568.66 499.983V535.463L1599.4 553.203L1630.14 535.463Z" stroke="#C5C9E0"/>
<path opacity="0.5" fill-rule="evenodd" clip-rule="evenodd" d="M1660.88 482.239V446.759L1630.14 429.019L1599.4 446.759V482.239L1630.14 499.979L1660.88 482.239Z" stroke="#C5C9E0" stroke-dasharray="10 10"/>
<path opacity="0.5" d="M1660.88 482.243L1630.14 499.983V535.463L1660.88 553.204" stroke="#C5C9E0"/>
<path opacity="0.5" d="M1722.35 482.239V446.759L1691.62 429.019L1660.88 446.759V482.239" stroke="#C5C9E0" stroke-dasharray="10 10"/>
<path opacity="0.5" d="M1783.83 482.239V446.759L1753.09 429.019L1722.35 446.759V482.239" stroke="#C5C9E0"/>
<path opacity="0.5" d="M1845.31 482.239V446.759L1814.57 429.019L1783.83 446.759V482.239" stroke="#C5C9E0"/>
<path d="M1 117.563V162.164L31.738 179.904V215.633L62.478 233.373V268.855L93.215 251.113L123.955 268.855V304.335L93.215 322.325L123.955 340.067V375.547L154.693 357.807L185.43 375.547L216.17 393.29V429.019L246.907 446.759V482.24L277.647 464.499L308.385 482.24L339.124 464.499L369.862 482.24V446.759L400.6 429.019L431.339 446.759L462.077 429.019L492.816 446.759V482.24L523.554 499.982L554.294 482.242L585.031 499.982L615.771 482.24L646.508 464.499V429.019L677.246 411.027L707.986 429.019L738.723 411.027L800.2 446.759L861.677 411.027L923.154 446.759L984.632 411.027L1015.37 429.019L1046.11 411.027V375.547L1076.85 357.807V322.325L1046.11 304.335V268.855L1076.85 251.113L1107.58 268.855V304.335L1138.32 322.325V357.807L1169.06 375.547L1138.32 393.29V429.019L1169.06 446.759L1199.8 429.019L1230.54 446.759V482.24L1261.28 499.982L1322.75 464.499L1353.49 482.24V446.759L1384.23 429.019L1414.97 446.759L1445.71 429.019L1476.45 446.759V482.24L1507.19 464.499L1537.92 482.24L1568.66 464.499V429.019L1599.4 411.027V375.55L1630.14 357.807L1660.88 375.547L1691.62 357.558V286.595L1660.88 268.855L1691.62 251.113V215.633L1722.35 197.643L1783.83 233.373L1845.31 197.643" stroke="#FA6400"/>
</svg>
